<svg version="1.1" id="Layer_1" xmlns="http://www.w3.org/2000/svg" xmlns:xlink="http://www.w3.org/1999/xlink" x="0px" y="0px"
	 width="100%" viewBox="0 0 1184 864" enable-background="new 0 0 1184 864" xml:space="preserve">
<path fill="#F6F6F6" opacity="1.000000" stroke="none" 
	d="
M737.000000,0.999998 
	C886.317017,1.000000 1035.634033,1.000000 1184.975586,1.000000 
	C1184.975586,288.952209 1184.975586,576.904419 1184.975586,864.928345 
	C790.424255,864.928345 395.848480,864.928345 1.136351,864.928345 
	C1.136351,577.122437 1.136351,289.244751 1.136351,1.000000 
	C150.361176,1.000000 299.722626,1.000000 449.272522,1.321083 
	C430.824890,3.055380 412.240509,5.159742 394.538727,11.374835 
	C386.571442,14.172153 379.268646,18.862024 371.362732,22.780113 
	C370.058624,23.613617 369.056183,24.360189 367.736938,25.100304 
	C366.831116,25.633327 366.242065,26.172812 365.316223,26.802584 
	C363.662262,27.589674 362.218323,28.119535 361.047272,29.008799 
	C347.605103,39.216267 335.964447,51.177631 326.335480,65.056435 
	C314.382507,82.284996 307.833588,101.474815 305.949982,122.275772 
	C304.334686,140.113800 301.600403,157.973511 301.651093,175.817139 
	C301.828430,238.235550 299.328796,300.681702 303.195465,363.076324 
	C304.724792,387.754944 311.379364,410.651825 325.166199,431.296326 
	C326.413361,433.163849 328.294312,434.608093 329.966980,436.561340 
	C331.145813,438.241882 332.238678,439.609985 333.310303,441.313354 
	C337.520508,446.127319 341.751892,450.605957 346.119629,455.248474 
	C346.442841,455.627075 346.641296,455.830475 346.920349,456.358978 
	C349.359894,458.711761 351.730499,460.728149 354.112244,462.811493 
	C354.123413,462.878448 354.258759,462.889130 354.273529,463.225342 
	C364.223267,472.475769 375.300720,479.516937 387.990723,484.384460 
	C389.429749,485.271515 390.777985,485.837372 392.472290,486.550110 
	C394.504395,487.158356 396.190430,487.619720 397.997284,488.401337 
	C400.746613,489.480042 403.375153,490.238464 406.372528,491.054993 
	C407.735992,491.142761 408.730621,491.172455 409.865173,491.482758 
	C410.708740,492.018280 411.412384,492.273254 412.492035,492.660583 
	C424.681976,494.113586 436.466919,495.886383 448.316833,496.645721 
	C464.911072,497.709137 481.550476,498.128540 498.176605,498.615387 
	C512.455322,499.033508 523.426147,505.302032 531.008606,517.172241 
	C539.207886,530.007874 546.836182,543.207336 554.962158,556.091309 
	C558.272400,561.339844 562.237183,566.175537 565.975830,571.408569 
	C566.047485,571.618103 566.312500,571.972900 566.304321,572.302490 
	C570.137512,575.683350 573.544128,579.752136 577.894958,581.610718 
	C597.223267,589.867798 616.061951,583.213074 626.743774,565.223816 
	C636.305969,549.120117 645.765808,532.942017 655.847290,517.165161 
	C662.341797,507.001678 671.581604,499.992828 684.137024,499.010254 
	C695.891541,498.090332 707.677307,497.362671 719.461975,497.081635 
	C739.359131,496.607178 759.270081,496.605743 778.766052,491.764496 
	C800.248596,486.429993 819.036438,475.963409 835.528931,461.401031 
	C839.944641,457.502106 843.476746,452.602448 847.673767,448.091431 
	C848.334351,447.465515 848.735596,446.910339 849.475342,446.257538 
	C855.138733,438.744995 860.463623,431.330078 865.845093,423.912170 
	C865.901672,423.909210 865.909546,423.796082 866.202576,423.647705 
	C869.709534,416.059479 872.923401,408.619629 876.459045,401.040222 
	C878.326782,394.520355 879.872742,388.140045 881.511841,381.366455 
	C881.608154,379.623474 881.611389,378.273743 881.978027,376.763245 
	C882.678345,374.009857 883.015198,371.417206 883.459900,368.431030 
	C883.487976,365.130554 883.408142,362.223602 883.652344,359.104492 
	C884.341248,349.252808 884.705994,339.613281 885.094482,329.507202 
	C885.086792,280.699799 885.055481,232.358994 885.275146,183.692093 
	C885.225525,172.974518 884.934387,162.582718 884.587708,152.192749 
	C884.574768,151.804413 884.020752,151.434113 883.758911,150.647400 
	C883.570007,147.170303 883.341125,144.101196 883.340088,140.727692 
	C882.820007,136.824524 882.072144,133.225754 881.329468,129.268051 
	C881.369141,126.994209 881.403564,125.079300 881.581299,122.783836 
	C881.060913,120.285904 880.397339,118.168526 879.744263,115.732338 
	C879.702209,114.992355 879.649719,114.571182 879.718811,113.728271 
	C877.423828,104.278160 875.713806,94.984108 872.439941,86.278084 
	C866.102844,69.425621 855.064575,55.485828 842.705566,42.634800 
	C840.027771,39.850327 836.382812,37.995953 833.096008,35.553520 
	C833.008728,35.393837 832.793152,35.100639 832.803467,34.778477 
	C832.170471,34.061123 831.527039,33.665928 830.707153,33.160858 
	C830.530579,33.050976 830.155029,32.872387 830.069214,32.542809 
	C827.646912,30.826681 825.310425,29.440136 822.984253,28.026583 
	C822.994507,27.999575 822.945618,28.030331 822.902466,27.689108 
	C818.125671,24.212267 813.678833,20.464636 808.592651,18.081635 
	C800.560120,14.318199 792.313721,10.622661 783.763428,8.452467 
	C773.380615,5.817177 762.593811,4.760538 751.970703,3.091205 
	C746.993835,2.309128 741.991028,1.691921 737.000000,0.999998 
M663.829529,744.010742 
	C658.367065,747.393860 652.904541,750.777039 647.254211,754.276550 
	C647.169739,752.984924 646.851929,751.653320 647.042114,750.398682 
	C647.735352,745.825684 645.688904,744.512756 641.403931,744.933105 
	C638.104492,745.256775 634.731934,745.203064 631.421143,744.943176 
	C627.806152,744.659485 626.901245,746.180420 626.937439,749.572388 
	C627.086731,763.561646 627.000000,777.553467 627.000000,791.544312 
	C627.000000,812.364075 627.095276,833.184570 626.915955,854.002808 
	C626.881897,857.955933 628.020630,859.411804 631.998047,859.063171 
	C635.469116,858.758911 639.001160,858.809692 642.481934,859.052795 
	C645.964233,859.296082 647.131470,858.050842 647.069153,854.523682 
	C646.877930,843.700806 646.987549,832.872375 647.013977,822.046204 
	C647.017761,820.499573 647.208557,818.953369 647.370056,816.557129 
	C650.929504,819.557556 653.388672,822.455566 656.513916,824.038574 
	C659.803772,825.704956 663.678345,826.467896 667.387512,827.012573 
	C684.895081,829.583191 697.248352,819.701477 702.033752,806.040894 
	C706.969360,791.951599 706.388306,777.542603 701.902161,763.481873 
	C697.024841,748.195129 680.189392,739.635742 663.829529,744.010742 
M588.189697,719.176208 
	C576.141052,715.808533 563.935059,715.294617 551.992371,718.972351 
	C533.834778,724.564026 525.720764,741.155029 532.083801,758.740479 
	C536.283447,770.347107 546.099121,774.944763 556.976440,777.981018 
	C564.779785,780.159241 572.796814,781.691406 580.415771,784.372253 
	C586.411560,786.481934 587.668701,790.235229 586.991089,798.363586 
	C586.619934,802.816284 583.078613,806.883667 578.147705,807.959229 
	C565.821838,810.647583 554.780457,808.392334 545.614197,799.160034 
	C543.660522,797.192261 541.418274,795.510925 538.836731,793.291748 
	C535.016663,797.853027 530.912659,802.753296 526.926331,807.513184 
	C531.512756,815.525024 538.096130,819.991943 545.827942,823.104248 
	C556.677795,827.471741 567.886169,828.364075 579.408081,827.002563 
	C606.481445,823.803589 614.807678,800.155701 605.963684,779.300354 
	C601.912903,769.748291 593.008484,765.414856 583.278076,763.046326 
	C575.082825,761.051331 566.739929,759.577454 558.674744,757.163330 
	C553.149231,755.509338 550.659912,750.926880 551.006775,745.675598 
	C551.309387,741.092712 554.925964,737.207764 560.305176,735.968933 
	C571.254517,733.447327 581.530762,734.975525 590.407898,742.112488 
	C593.311584,744.447021 595.088684,744.010620 596.963501,741.464905 
	C599.702393,737.745911 602.309387,733.929871 605.136292,729.923218 
	C600.704956,724.539673 595.284912,721.304016 588.189697,719.176208 
M204.752930,723.129578 
	C194.988525,729.796387 187.779282,738.284485 184.449432,749.941589 
	C181.352295,760.784058 180.581604,771.733276 182.053650,782.805481 
	C184.441254,800.764099 191.967575,815.545837 209.484100,823.120605 
	C219.017273,827.243042 229.028671,828.372253 239.568924,827.156433 
	C254.524368,825.431274 265.520050,818.484680 272.320740,805.174194 
	C276.398468,797.193115 276.167999,797.075439 268.164734,793.075073 
	C266.824707,792.405273 265.388458,791.876343 264.162567,791.039368 
	C260.009796,788.204102 257.827637,788.846802 255.850037,793.929932 
	C252.245102,803.195862 245.066452,808.488037 234.912399,808.970154 
	C223.131927,809.529419 212.975891,806.431091 207.901245,794.632263 
	C201.792343,780.428589 202.115555,765.690186 206.983032,751.378784 
	C213.724960,731.556152 238.436401,731.653137 249.389313,740.407043 
	C252.746979,743.090454 254.885391,747.299500 257.832977,751.136475 
	C263.176453,747.861511 268.371582,744.677429 273.874023,741.305054 
	C271.576447,733.551025 266.935120,727.454468 260.140656,723.722473 
	C242.196426,713.866150 223.811432,713.935425 204.752930,723.129578 
M745.000000,745.422852 
	C744.999878,735.923462 744.801147,726.418030 745.092468,716.927612 
	C745.218323,712.830322 743.772278,711.647949 739.925293,711.940491 
	C736.279907,712.217712 732.573120,712.262024 728.936890,711.930542 
	C724.837769,711.556824 723.887329,713.225037 723.923645,717.065308 
	C724.095093,735.229126 724.000000,753.395569 724.000000,771.561035 
	C724.000000,788.059937 724.128357,804.560608 723.908997,821.056580 
	C723.855042,825.114929 725.180237,826.353394 729.057678,826.062256 
	C732.869263,825.776062 736.732605,825.800171 740.548340,826.057251 
	C744.121582,826.297974 745.100647,824.874756 745.062805,821.451782 
	C744.910034,807.620972 744.973083,793.787537 745.008423,779.955139 
	C745.037354,768.619995 750.937927,761.757263 761.893188,760.198242 
	C768.945251,759.194641 774.515137,763.013000 776.171570,770.144958 
	C776.654175,772.222717 776.955139,774.392761 776.964600,776.522217 
	C777.031433,791.520935 777.093750,806.521118 776.931580,821.518372 
	C776.893494,825.040283 778.028259,826.297607 781.517273,826.052979 
	C784.999939,825.808899 788.534546,825.756653 792.007141,826.063904 
	C795.999817,826.417175 797.128418,824.936523 797.085876,820.992859 
	C796.893738,803.162720 797.007446,785.329407 796.985840,767.497192 
	C796.984253,766.175537 796.930237,764.822754 796.653931,763.537354 
	C792.446716,743.964783 774.697205,739.197876 758.605164,745.402222 
	C753.895630,747.218079 750.007690,751.164673 745.000000,754.652222 
	C745.000000,751.830688 745.000000,749.111389 745.000000,745.422852 
M333.421722,760.924866 
	C340.178040,762.721375 342.971802,766.307800 342.988678,773.475708 
	C343.026276,789.464172 343.078888,805.453491 342.940308,821.440796 
	C342.910797,824.842407 343.849060,826.293030 347.437988,826.058716 
	C351.418152,825.798889 355.438538,825.823547 359.422424,826.053345 
	C362.822479,826.249329 364.104218,825.186768 364.070892,821.584106 
	C363.910614,804.264648 364.218079,786.938721 363.890625,769.623962 
	C363.757812,762.602112 361.859314,755.753906 356.841431,750.388306 
	C347.502563,740.402283 327.688629,740.353821 317.347473,750.143616 
	C315.632263,751.767395 313.850616,753.320984 311.274231,755.654846 
	C311.144409,752.757996 311.012970,751.154602 311.010254,749.551025 
	C310.991669,738.558899 310.894745,727.565125 311.062592,716.575562 
	C311.114380,713.184753 310.198517,711.639160 306.581085,711.948669 
	C303.605042,712.203308 300.589813,711.998413 297.591949,712.000366 
	C291.006989,712.004761 291.000458,712.005615 290.999939,718.393921 
	C290.997498,749.871399 290.998779,781.348938 290.998749,812.826416 
	C290.998749,826.009277 290.998779,826.009277 304.302917,826.000000 
	C310.996307,825.995300 310.896118,825.993469 311.020691,819.211304 
	C311.286072,804.762634 311.298920,790.295105 312.123779,775.875793 
	C312.708801,765.648865 323.066620,758.471069 333.421722,760.924866 
M991.639404,744.961914 
	C978.249817,748.934326 970.170166,758.313599 967.336853,771.442017 
	C965.650391,779.256775 965.346558,787.752441 966.399414,795.679260 
	C967.726868,805.672974 972.313110,814.536316 981.104065,820.727600 
	C985.897278,824.103333 990.172302,828.228699 994.593079,832.116089 
	C999.812012,836.705261 1007.166199,837.101868 1012.328613,832.746765 
	C1013.753418,831.544739 1014.741516,829.825073 1016.500610,827.631470 
	C1016.926575,832.650452 1014.395874,834.937195 1011.218994,836.244873 
	C1008.167358,837.501038 1004.786377,837.957336 1001.550171,838.765198 
	C1014.765137,844.024536 1021.293335,838.005005 1023.774231,824.670837 
	C1024.753296,826.546204 1025.288086,827.570618 1025.586792,828.142700 
	C1030.537231,821.608093 1035.352539,815.251831 1040.439453,808.536926 
	C1035.842407,805.623047 1032.012573,803.010681 1027.975464,800.771912 
	C1027.019043,800.241638 1024.647827,800.473511 1024.156250,801.193542 
	C1021.552612,805.007446 1018.806458,803.879883 1015.500366,802.326477 
	C1010.324707,799.894714 1004.717834,799.762146 1000.705566,804.048584 
	C996.040527,809.032776 993.428345,806.768188 990.462524,802.593994 
	C988.961243,800.481018 988.089722,797.832581 987.321106,795.308228 
	C986.215576,791.677368 987.246887,789.850586 991.614136,789.917725 
	C1005.929016,790.137878 1020.251343,789.869873 1034.566650,790.075134 
	C1039.170776,790.141174 1041.093994,788.096558 1040.951416,783.891968 
	C1040.777710,778.767517 1040.837769,773.535339 1039.786743,768.563293 
	C1038.112061,760.640259 1034.829834,753.460571 1027.423584,748.897400 
	C1016.357361,742.079224 1004.626404,741.614136 991.639404,744.961914 
M853.828613,827.788879 
	C864.321045,827.763489 874.209656,826.046753 882.492126,818.760986 
	C890.438477,811.770935 890.428772,809.027649 881.811584,803.241760 
	C881.535767,803.056580 881.272766,802.847473 881.025879,802.624939 
	C877.554321,799.496704 874.895020,799.608215 871.714417,803.601807 
	C865.408081,811.519897 856.517029,811.517517 848.060486,808.686584 
	C840.024841,805.996399 836.947021,798.908813 836.234558,790.000000 
	C838.287048,790.000000 840.062622,790.000000 841.838257,790.000000 
	C854.829407,790.000000 867.820496,790.000061 880.811646,790.000000 
	C889.113953,789.999939 889.527161,790.028564 890.093628,781.866211 
	C890.776672,772.025330 889.760864,762.525269 883.010681,754.296631 
	C877.423828,747.486084 870.155334,744.715942 861.941406,743.496582 
	C845.801880,741.100464 827.557739,746.496704 819.729736,763.668823 
	C813.429443,777.489807 813.449646,791.715393 818.970154,805.710144 
	C823.367676,816.857971 832.002808,823.506836 843.688477,826.070984 
	C846.744690,826.741638 849.884644,827.030945 853.828613,827.788879 
M447.998779,780.510254 
	C447.657104,774.391602 447.687286,768.222900 446.871613,762.168091 
	C446.014893,755.808655 442.822540,750.386841 436.879974,747.515564 
	C421.057434,739.870605 405.435791,741.387817 390.939667,750.626343 
	C379.488922,757.924011 382.106567,755.812500 387.407715,765.578796 
	C390.366333,771.029419 391.388245,771.288452 395.990601,767.267212 
	C402.557953,761.528992 410.000916,759.448303 418.528290,759.949768 
	C424.137787,760.279663 427.095154,761.959229 427.605957,766.468689 
	C428.132568,771.117920 425.694489,774.007812 421.185547,775.075073 
	C414.107513,776.750549 406.940948,778.099609 399.942627,780.054810 
	C382.303833,784.982788 378.035950,795.627014 381.645691,811.137451 
	C385.767151,828.846741 409.173889,831.222961 420.915771,823.465454 
	C424.099731,821.361938 426.728760,818.418579 429.535370,815.929016 
	C436.964478,826.564392 441.527344,828.483887 453.644653,825.912720 
	C456.607117,825.284180 458.541016,824.108398 458.030151,820.617737 
	C457.719482,818.494995 457.787659,816.319275 457.542053,814.183899 
	C457.227600,811.449585 456.258179,809.627075 452.831116,809.914795 
	C449.215881,810.218201 447.958435,807.851501 447.983124,804.483459 
	C448.039307,796.824890 447.999573,789.165649 447.998779,780.510254 
M469.448029,744.001709 
	C462.003784,744.023254 462.003723,744.023254 461.998840,751.391663 
	C461.998291,752.224548 461.998566,753.057434 461.998840,753.890320 
	C462.001160,760.926758 462.012695,761.196106 468.873352,760.902283 
	C473.219940,760.716187 474.159607,762.375549 474.081238,766.367920 
	C473.852417,778.023865 473.831024,789.690308 474.052856,801.346497 
	C474.235596,810.948547 477.093536,819.616272 486.175964,824.378357 
	C494.090454,828.528076 502.744598,828.646362 511.279297,826.319946 
	C520.793213,823.726501 521.107971,822.887329 518.005493,813.520020 
	C517.848694,813.046631 517.647522,812.582153 517.546692,812.096924 
	C516.595215,807.518555 514.737671,806.654297 509.843658,808.251038 
	C502.047363,810.794678 495.087799,808.724365 495.025757,800.671936 
	C494.933380,788.679138 495.059784,776.684631 494.959259,764.691956 
	C494.935333,761.837524 496.047607,760.873413 498.800507,760.963928 
	C503.126801,761.106384 507.500275,760.635620 511.782227,761.093628 
	C516.974854,761.648987 518.299316,759.739380 518.114258,754.712769 
	C517.670471,742.657104 519.328125,744.056702 507.376831,744.012573 
	C495.032349,743.967041 495.032257,744.002441 494.998657,731.895935 
	C494.981934,725.866760 493.975922,725.050781 487.928040,726.197998 
	C487.442261,726.290161 486.992798,726.571594 486.507172,726.666687 
	C482.644379,727.423035 477.393402,726.913757 475.300781,729.245239 
	C473.215973,731.568054 474.124725,736.730347 474.052002,740.653809 
	C474.001892,743.359741 472.788116,744.202515 469.448029,744.001709 
M908.000427,749.690918 
	C908.000305,773.001404 907.998352,796.311890 908.001038,819.622375 
	C908.001770,825.994446 908.008118,825.995300 914.606323,825.999695 
	C917.769897,826.001770 920.960571,825.739075 924.090332,826.064270 
	C928.225952,826.493958 929.131104,824.714111 929.074341,820.914978 
	C928.880432,807.930603 928.650146,794.929077 929.110352,781.958191 
	C929.485474,771.385010 934.788086,761.593445 947.083740,762.939148 
	C950.023499,763.260925 954.288025,763.988037 955.726440,762.452271 
	C957.662781,760.385010 957.452209,756.305115 958.158081,753.087891 
	C958.441223,751.797546 959.259705,750.294861 958.864502,749.258789 
	C958.186523,747.481140 956.935181,744.799133 955.594727,744.587646 
	C949.035645,743.553040 942.209717,742.741760 936.711365,747.846130 
	C933.884888,750.470154 931.451538,753.517578 928.834351,756.380371 
	C925.684875,753.198425 931.523621,746.681885 925.183350,745.203918 
	C920.918335,744.209839 916.236145,745.005188 911.740601,745.000427 
	C911.574097,745.000244 911.406433,745.019531 911.241333,745.005493 
	C908.445801,744.768677 907.830811,746.416504 908.000427,749.690918 
z"/>
<path fill="#916EFD" opacity="1.000000" stroke="none" 
	d="
M566.312500,571.972900 
	C566.312500,571.972900 566.047485,571.618103 565.975464,571.035645 
	C561.086853,562.231262 556.453186,553.894775 551.396179,545.823425 
	C547.293945,539.275940 545.690125,531.161011 539.124146,526.139832 
	C538.654724,525.780884 538.428101,524.993103 538.266846,524.359375 
	C536.557495,517.639648 532.169556,512.683350 527.437256,507.985901 
	C524.912964,505.480255 522.571960,502.457703 519.522278,500.872833 
	C508.190399,494.984009 495.511536,494.992340 483.240448,494.192322 
	C467.007355,493.133911 450.689331,493.418152 434.412781,492.951782 
	C431.312439,492.862946 427.878571,492.660950 425.223969,491.295441 
	C420.221558,488.722168 414.948181,488.570068 409.647827,487.988708 
	C407.358246,487.737549 404.994843,487.521118 402.840759,486.778778 
	C390.626495,482.569611 378.517181,478.103485 368.385529,469.677948 
	C367.876404,469.254578 367.339142,468.834442 366.750702,468.542267 
	C363.670227,467.012695 360.582153,465.496704 357.467438,464.038605 
	C356.442993,463.559052 355.330811,463.266937 354.258759,462.889130 
	C354.258759,462.889130 354.123413,462.878448 354.036926,462.493530 
	C351.584076,460.079956 349.217712,458.051270 346.851379,456.022583 
	C346.641296,455.830475 346.442841,455.627075 346.093384,454.889648 
	C343.894135,451.627747 341.377228,449.114197 339.954529,446.086517 
	C338.502411,442.996185 336.383942,441.585846 333.331512,440.978058 
	C332.238678,439.609985 331.145813,438.241882 329.972931,436.175476 
	C327.944611,432.163879 326.130402,428.762573 324.023529,425.553436 
	C316.989471,414.839294 312.955414,402.699890 310.426788,390.521393 
	C307.314575,375.532288 305.333740,360.034760 305.239655,344.742340 
	C304.922211,293.137756 305.679108,241.526840 305.944855,189.917923 
	C305.965210,185.962051 304.922241,181.981018 305.120056,178.049240 
	C305.917175,162.202911 306.885193,146.362366 308.044281,130.538315 
	C308.575073,123.291351 309.044800,115.930313 310.742798,108.911438 
	C312.233398,102.749771 316.145233,97.177780 317.667572,91.019043 
	C320.612762,79.104034 327.339813,69.156761 334.046356,59.488304 
	C339.263306,51.967285 346.962738,46.157524 353.620941,39.650730 
	C358.013153,35.358383 362.515442,31.178684 367.212189,26.800598 
	C367.655212,26.137358 367.854462,25.622061 368.053711,25.106762 
	C369.056183,24.360189 370.058624,23.613617 371.742981,22.856415 
	C373.352905,22.510893 374.393555,22.345856 375.192230,21.816013 
	C390.833374,11.439723 409.035095,8.703629 426.837921,6.297480 
	C445.717896,3.745755 464.973724,3.995163 484.057831,2.890361 
	C485.403839,2.812438 486.687408,1.655304 488.000000,1.000001 
	C559.354248,1.000000 630.708435,1.000000 702.644531,1.383962 
	C704.901611,2.159610 706.562134,2.804537 708.254333,2.902637 
	C720.983948,3.640591 733.735596,4.061264 746.447021,5.021862 
	C752.955811,5.513724 759.393677,6.927909 765.868103,7.894564 
	C771.409363,8.721882 777.153687,8.848705 782.463318,10.437716 
	C795.710144,14.402118 809.062134,18.343792 820.117554,27.319181 
	C820.801758,27.874651 821.991211,27.807697 822.945618,28.030327 
	C822.945618,28.030331 822.994507,27.999575 823.044556,28.360569 
	C825.448059,30.105169 827.801575,31.488777 830.155029,32.872383 
	C830.155029,32.872387 830.530579,33.050976 830.776123,33.439316 
	C831.612183,34.251987 832.202637,34.676315 832.793152,35.100639 
	C832.793152,35.100639 833.008728,35.393837 833.162476,35.897682 
	C841.463989,45.669842 850.000610,54.630516 857.647888,64.294922 
	C864.970276,73.548714 870.544678,83.892845 873.487793,95.554550 
	C875.080444,101.865051 877.532715,107.958588 879.597168,114.150009 
	C879.649719,114.571182 879.702209,114.992355 879.522461,116.034775 
	C879.231506,118.732384 879.172729,120.808739 879.082764,123.345390 
	C879.724548,133.219101 880.360901,142.635574 881.144165,152.039825 
	C881.203308,152.749802 882.308594,153.372620 882.942444,154.498291 
	C882.978210,159.631119 882.999146,164.301620 882.726746,169.272400 
	C882.289368,170.548019 882.019531,171.523315 882.019226,172.498703 
	C882.004761,219.289581 882.014038,266.080475 882.019165,312.871338 
	C882.019714,317.452759 881.850464,322.042877 882.098267,326.610626 
	C882.179688,328.111816 883.330750,329.555023 883.991699,331.476196 
	C883.647583,339.609589 883.304382,347.291534 882.576782,355.082520 
	C882.110107,359.807159 882.027832,364.422791 881.903687,369.414612 
	C881.779358,372.168549 881.696960,374.546295 881.614624,376.924011 
	C881.611389,378.273743 881.608154,379.623474 881.166321,381.462128 
	C880.108582,384.947784 879.489380,387.944550 878.677734,391.081329 
	C878.246704,391.446167 878.086548,391.717255 877.985352,392.415100 
	C877.549500,394.494324 877.132996,396.193146 876.462280,397.954773 
	C875.817200,398.341309 875.426208,398.665070 874.883911,399.316101 
	C873.747986,401.922272 872.632446,404.154663 871.805115,406.489197 
	C869.769348,412.233154 867.866089,418.024048 865.909546,423.796082 
	C865.909546,423.796082 865.901672,423.909210 865.500122,423.938232 
	C864.120361,424.745575 862.977295,425.386566 862.193726,426.327057 
	C859.495728,429.565399 857.211365,433.202545 854.222412,436.128967 
	C851.234436,439.054352 849.298401,442.179108 849.136780,446.355164 
	C848.735596,446.910339 848.334351,447.465515 847.273071,448.041168 
	C845.070374,448.882904 843.290894,449.441711 842.031860,450.577393 
	C838.945068,453.362122 836.324829,456.692474 833.108521,459.299500 
	C826.022156,465.043213 819.151489,471.287750 811.314331,475.803131 
	C803.770508,480.149536 795.157166,482.671478 786.943298,485.810913 
	C782.204468,487.622192 777.376648,489.245117 772.499573,490.640808 
	C763.812683,493.126862 754.962524,493.335785 745.915283,493.187622 
	C729.147949,492.913086 712.361267,493.597076 695.588440,494.083008 
	C692.330078,494.177399 689.034546,495.919434 685.865967,495.643066 
	C675.469910,494.736298 666.829407,498.977875 659.845642,505.567932 
	C654.333862,510.768890 650.260193,517.656189 646.210144,524.204163 
	C640.765564,533.006592 635.968872,542.209106 630.867859,551.225098 
	C629.983276,552.788757 628.854065,554.219666 628.032166,555.812195 
	C621.338684,568.781128 613.364136,580.292175 597.305908,582.320801 
	C594.598145,582.662842 591.723755,582.592285 589.044617,582.086365 
	C580.704346,580.511108 573.254395,576.775146 566.312500,571.972900 
M622.763489,261.740295 
	C622.173279,251.726959 617.370117,243.600342 609.160156,238.693756 
	C595.089172,230.284424 580.099854,233.542099 569.608337,246.871170 
	C557.392273,262.391174 566.389160,284.836487 583.245667,291.170563 
	C603.898621,298.931122 623.982605,282.090668 622.763489,261.740295 
M714.993652,292.788727 
	C731.030823,289.782532 741.098938,274.568359 739.691833,261.308350 
	C738.638733,251.385391 733.819214,243.351288 725.487488,238.486847 
	C715.588013,232.707047 704.827576,232.035904 694.817505,238.880157 
	C681.678528,247.863678 676.982361,262.424652 683.473022,275.317993 
	C689.691040,287.669800 699.740234,294.264404 714.993652,292.788727 
M464.901367,290.815094 
	C466.181946,291.148163 467.477966,291.431274 468.740784,291.821808 
	C487.138550,297.510742 506.915161,281.937836 506.055939,263.132385 
	C505.406403,248.916397 495.627411,236.998291 481.583191,234.621811 
	C467.709839,232.274231 453.508392,240.785049 448.950592,254.178253 
	C444.245819,268.003326 449.940674,281.501465 464.901367,290.815094 
z"/>
<path fill="#B59BEB" opacity="1.000000" stroke="none" 
	d="
M822.902466,27.689106 
	C821.991211,27.807697 820.801758,27.874651 820.117554,27.319181 
	C809.062134,18.343792 795.710144,14.402118 782.463318,10.437716 
	C777.153687,8.848705 771.409363,8.721882 765.868103,7.894564 
	C759.393677,6.927909 752.955811,5.513724 746.447021,5.021862 
	C733.735596,4.061264 720.983948,3.640591 708.254333,2.902637 
	C706.562134,2.804537 704.901611,2.159610 703.113220,1.383962 
	C714.020874,1.000000 725.041809,1.000000 736.531372,0.999998 
	C741.991028,1.691921 746.993835,2.309128 751.970703,3.091205 
	C762.593811,4.760538 773.380615,5.817177 783.763428,8.452467 
	C792.313721,10.622661 800.560120,14.318199 808.592651,18.081635 
	C813.678833,20.464636 818.125671,24.212267 822.902466,27.689106 
z"/>
<path fill="#B59BEB" opacity="1.000000" stroke="none" 
	d="
M487.531342,1.000001 
	C486.687408,1.655304 485.403839,2.812438 484.057831,2.890361 
	C464.973724,3.995163 445.717896,3.745755 426.837921,6.297480 
	C409.035095,8.703629 390.833374,11.439723 375.192230,21.816013 
	C374.393555,22.345856 373.352905,22.510893 372.044617,22.769482 
	C379.268646,18.862024 386.571442,14.172153 394.538727,11.374835 
	C412.240509,5.159742 430.824890,3.055380 449.730469,1.321083 
	C462.354218,1.000000 474.708466,1.000000 487.531342,1.000001 
z"/>
<path fill="#FFFFFF" opacity="1.000000" stroke="none" 
	d="
M664.242798,743.959839 
	C680.189392,739.635742 697.024841,748.195129 701.902161,763.481873 
	C706.388306,777.542603 706.969360,791.951599 702.033752,806.040894 
	C697.248352,819.701477 684.895081,829.583191 667.387512,827.012573 
	C663.678345,826.467896 659.803772,825.704956 656.513916,824.038574 
	C653.388672,822.455566 650.929504,819.557556 647.370056,816.557129 
	C647.208557,818.953369 647.017761,820.499573 647.013977,822.046204 
	C646.987549,832.872375 646.877930,843.700806 647.069153,854.523682 
	C647.131470,858.050842 645.964233,859.296082 642.481934,859.052795 
	C639.001160,858.809692 635.469116,858.758911 631.998047,859.063171 
	C628.020630,859.411804 626.881897,857.955933 626.915955,854.002808 
	C627.095276,833.184570 627.000000,812.364075 627.000000,791.544312 
	C627.000000,777.553467 627.086731,763.561646 626.937439,749.572388 
	C626.901245,746.180420 627.806152,744.659485 631.421143,744.943176 
	C634.731934,745.203064 638.104492,745.256775 641.403931,744.933105 
	C645.688904,744.512756 647.735352,745.825684 647.042114,750.398682 
	C646.851929,751.653320 647.169739,752.984924 647.254211,754.276550 
	C652.904541,750.777039 658.367065,747.393860 664.242798,743.959839 
M683.993896,791.112061 
	C683.592407,785.345093 683.809265,779.449951 682.646912,773.840698 
	C680.825623,765.051880 674.190613,760.191772 665.536194,760.147827 
	C657.805420,760.108582 651.678589,764.850830 648.903137,772.769836 
	C646.171143,780.564819 646.377808,788.446960 648.320435,796.265442 
	C650.090332,803.388611 654.539001,808.431885 661.990662,809.741028 
	C668.680664,810.916443 675.306458,809.981201 679.361694,803.884338 
	C681.657104,800.433411 682.479614,796.002930 683.993896,791.112061 
z"/>
<path fill="#FFFFFF" opacity="1.000000" stroke="none" 
	d="
M588.560730,719.323242 
	C595.284912,721.304016 600.704956,724.539673 605.136292,729.923218 
	C602.309387,733.929871 599.702393,737.745911 596.963501,741.464905 
	C595.088684,744.010620 593.311584,744.447021 590.407898,742.112488 
	C581.530762,734.975525 571.254517,733.447327 560.305176,735.968933 
	C554.925964,737.207764 551.309387,741.092712 551.006775,745.675598 
	C550.659912,750.926880 553.149231,755.509338 558.674744,757.163330 
	C566.739929,759.577454 575.082825,761.051331 583.278076,763.046326 
	C593.008484,765.414856 601.912903,769.748291 605.963684,779.300354 
	C614.807678,800.155701 606.481445,823.803589 579.408081,827.002563 
	C567.886169,828.364075 556.677795,827.471741 545.827942,823.104248 
	C538.096130,819.991943 531.512756,815.525024 526.926331,807.513184 
	C530.912659,802.753296 535.016663,797.853027 538.836731,793.291748 
	C541.418274,795.510925 543.660522,797.192261 545.614197,799.160034 
	C554.780457,808.392334 565.821838,810.647583 578.147705,807.959229 
	C583.078613,806.883667 586.619934,802.816284 586.991089,798.363586 
	C587.668701,790.235229 586.411560,786.481934 580.415771,784.372253 
	C572.796814,781.691406 564.779785,780.159241 556.976440,777.981018 
	C546.099121,774.944763 536.283447,770.347107 532.083801,758.740479 
	C525.720764,741.155029 533.834778,724.564026 551.992371,718.972351 
	C563.935059,715.294617 576.141052,715.808533 588.560730,719.323242 
z"/>
<path fill="#FFFFFF" opacity="1.000000" stroke="none" 
	d="
M205.084610,722.971069 
	C223.811432,713.935425 242.196426,713.866150 260.140656,723.722473 
	C266.935120,727.454468 271.576447,733.551025 273.874023,741.305054 
	C268.371582,744.677429 263.176453,747.861511 257.832977,751.136475 
	C254.885391,747.299500 252.746979,743.090454 249.389313,740.407043 
	C238.436401,731.653137 213.724960,731.556152 206.983032,751.378784 
	C202.115555,765.690186 201.792343,780.428589 207.901245,794.632263 
	C212.975891,806.431091 223.131927,809.529419 234.912399,808.970154 
	C245.066452,808.488037 252.245102,803.195862 255.850037,793.929932 
	C257.827637,788.846802 260.009796,788.204102 264.162567,791.039368 
	C265.388458,791.876343 266.824707,792.405273 268.164734,793.075073 
	C276.167999,797.075439 276.398468,797.193115 272.320740,805.174194 
	C265.520050,818.484680 254.524368,825.431274 239.568924,827.156433 
	C229.028671,828.372253 219.017273,827.243042 209.484100,823.120605 
	C191.967575,815.545837 184.441254,800.764099 182.053650,782.805481 
	C180.581604,771.733276 181.352295,760.784058 184.449432,749.941589 
	C187.779282,738.284485 194.988525,729.796387 205.084610,722.971069 
z"/>
<path fill="#FFFFFF" opacity="1.000000" stroke="none" 
	d="
M745.000000,745.907471 
	C745.000000,749.111389 745.000000,751.830688 745.000000,754.652222 
	C750.007690,751.164673 753.895630,747.218079 758.605164,745.402222 
	C774.697205,739.197876 792.446716,743.964783 796.653931,763.537354 
	C796.930237,764.822754 796.984253,766.175537 796.985840,767.497192 
	C797.007446,785.329407 796.893738,803.162720 797.085876,820.992859 
	C797.128418,824.936523 795.999817,826.417175 792.007141,826.063904 
	C788.534546,825.756653 784.999939,825.808899 781.517273,826.052979 
	C778.028259,826.297607 776.893494,825.040283 776.931580,821.518372 
	C777.093750,806.521118 777.031433,791.520935 776.964600,776.522217 
	C776.955139,774.392761 776.654175,772.222717 776.171570,770.144958 
	C774.515137,763.013000 768.945251,759.194641 761.893188,760.198242 
	C750.937927,761.757263 745.037354,768.619995 745.008423,779.955139 
	C744.973083,793.787537 744.910034,807.620972 745.062805,821.451782 
	C745.100647,824.874756 744.121582,826.297974 740.548340,826.057251 
	C736.732605,825.800171 732.869263,825.776062 729.057678,826.062256 
	C725.180237,826.353394 723.855042,825.114929 723.908997,821.056580 
	C724.128357,804.560608 724.000000,788.059937 724.000000,771.561035 
	C724.000000,753.395569 724.095093,735.229126 723.923645,717.065308 
	C723.887329,713.225037 724.837769,711.556824 728.936890,711.930542 
	C732.573120,712.262024 736.279907,712.217712 739.925293,711.940491 
	C743.772278,711.647949 745.218323,712.830322 745.092468,716.927612 
	C744.801147,726.418030 744.999878,735.923462 745.000000,745.907471 
z"/>
<path fill="#FFFFFF" opacity="1.000000" stroke="none" 
	d="
M333.030182,760.838013 
	C323.066620,758.471069 312.708801,765.648865 312.123779,775.875793 
	C311.298920,790.295105 311.286072,804.762634 311.020691,819.211304 
	C310.896118,825.993469 310.996307,825.995300 304.302917,826.000000 
	C290.998779,826.009277 290.998749,826.009277 290.998749,812.826416 
	C290.998779,781.348938 290.997498,749.871399 290.999939,718.393921 
	C291.000458,712.005615 291.006989,712.004761 297.591949,712.000366 
	C300.589813,711.998413 303.605042,712.203308 306.581085,711.948669 
	C310.198517,711.639160 311.114380,713.184753 311.062592,716.575562 
	C310.894745,727.565125 310.991669,738.558899 311.010254,749.551025 
	C311.012970,751.154602 311.144409,752.757996 311.274231,755.654846 
	C313.850616,753.320984 315.632263,751.767395 317.347473,750.143616 
	C327.688629,740.353821 347.502563,740.402283 356.841431,750.388306 
	C361.859314,755.753906 363.757812,762.602112 363.890625,769.623962 
	C364.218079,786.938721 363.910614,804.264648 364.070892,821.584106 
	C364.104218,825.186768 362.822479,826.249329 359.422424,826.053345 
	C355.438538,825.823547 351.418152,825.798889 347.437988,826.058716 
	C343.849060,826.293030 342.910797,824.842407 342.940308,821.440796 
	C343.078888,805.453491 343.026276,789.464172 342.988678,773.475708 
	C342.971802,766.307800 340.178040,762.721375 333.030182,760.838013 
z"/>
<path fill="#FFFFFF" opacity="1.000000" stroke="none" 
	d="
M992.032349,744.852661 
	C1004.626404,741.614136 1016.357361,742.079224 1027.423584,748.897400 
	C1034.829834,753.460571 1038.112061,760.640259 1039.786743,768.563293 
	C1040.837769,773.535339 1040.777710,778.767517 1040.951416,783.891968 
	C1041.093994,788.096558 1039.170776,790.141174 1034.566650,790.075134 
	C1020.251343,789.869873 1005.929016,790.137878 991.614136,789.917725 
	C987.246887,789.850586 986.215576,791.677368 987.321106,795.308228 
	C988.089722,797.832581 988.961243,800.481018 990.462524,802.593994 
	C993.428345,806.768188 996.040527,809.032776 1000.705566,804.048584 
	C1004.717834,799.762146 1010.324707,799.894714 1015.500366,802.326477 
	C1018.806458,803.879883 1021.552612,805.007446 1024.156250,801.193542 
	C1024.647827,800.473511 1027.019043,800.241638 1027.975464,800.771912 
	C1032.012573,803.010681 1035.842407,805.623047 1040.439453,808.536926 
	C1035.352539,815.251831 1030.537231,821.608093 1025.586792,828.142700 
	C1025.288086,827.570618 1024.753296,826.546204 1023.774231,824.670837 
	C1021.293335,838.005005 1014.765137,844.024536 1001.550171,838.765198 
	C1004.786377,837.957336 1008.167358,837.501038 1011.218994,836.244873 
	C1014.395874,834.937195 1016.926575,832.650452 1016.500610,827.631470 
	C1014.741516,829.825073 1013.753418,831.544739 1012.328613,832.746765 
	C1007.166199,837.101868 999.812012,836.705261 994.593079,832.116089 
	C990.172302,828.228699 985.897278,824.103333 981.104065,820.727600 
	C972.313110,814.536316 967.726868,805.672974 966.399414,795.679260 
	C965.346558,787.752441 965.650391,779.256775 967.336853,771.442017 
	C970.170166,758.313599 978.249817,748.934326 992.032349,744.852661 
M989.422607,768.149719 
	C988.579712,770.771057 987.736816,773.392395 986.707825,776.592529 
	C998.480408,776.592529 1009.481384,776.592529 1020.401672,776.592529 
	C1022.093872,769.387268 1017.014648,759.832520 1008.034546,759.025757 
	C1000.306213,758.331482 993.891846,760.412781 989.422607,768.149719 
z"/>
<path fill="#FFFFFF" opacity="1.000000" stroke="none" 
	d="
M853.407349,827.642090 
	C849.884644,827.030945 846.744690,826.741638 843.688477,826.070984 
	C832.002808,823.506836 823.367676,816.857971 818.970154,805.710144 
	C813.449646,791.715393 813.429443,777.489807 819.729736,763.668823 
	C827.557739,746.496704 845.801880,741.100464 861.941406,743.496582 
	C870.155334,744.715942 877.423828,747.486084 883.010681,754.296631 
	C889.760864,762.525269 890.776672,772.025330 890.093628,781.866211 
	C889.527161,790.028564 889.113953,789.999939 880.811646,790.000000 
	C867.820496,790.000061 854.829407,790.000000 841.838257,790.000000 
	C840.062622,790.000000 838.287048,790.000000 836.234558,790.000000 
	C836.947021,798.908813 840.024841,805.996399 848.060486,808.686584 
	C856.517029,811.517517 865.408081,811.519897 871.714417,803.601807 
	C874.895020,799.608215 877.554321,799.496704 881.025879,802.624939 
	C881.272766,802.847473 881.535767,803.056580 881.811584,803.241760 
	C890.428772,809.027649 890.438477,811.770935 882.492126,818.760986 
	C874.209656,826.046753 864.321045,827.763489 853.407349,827.642090 
M845.878784,761.065796 
	C840.591064,764.776855 837.276794,769.567993 837.218079,776.951660 
	C847.968811,776.951660 858.417725,776.995056 868.864197,776.853333 
	C869.554565,776.843994 870.762390,775.464050 870.822815,774.653931 
	C871.418945,766.664978 865.219055,759.342163 857.279114,759.123047 
	C853.729614,759.025085 850.145874,760.162964 845.878784,761.065796 
z"/>
<path fill="#FFFFFF" opacity="1.000000" stroke="none" 
	d="
M447.998779,781.008423 
	C447.999573,789.165649 448.039307,796.824890 447.983124,804.483459 
	C447.958435,807.851501 449.215881,810.218201 452.831116,809.914795 
	C456.258179,809.627075 457.227600,811.449585 457.542053,814.183899 
	C457.787659,816.319275 457.719482,818.494995 458.030151,820.617737 
	C458.541016,824.108398 456.607117,825.284180 453.644653,825.912720 
	C441.527344,828.483887 436.964478,826.564392 429.535370,815.929016 
	C426.728760,818.418579 424.099731,821.361938 420.915771,823.465454 
	C409.173889,831.222961 385.767151,828.846741 381.645691,811.137451 
	C378.035950,795.627014 382.303833,784.982788 399.942627,780.054810 
	C406.940948,778.099609 414.107513,776.750549 421.185547,775.075073 
	C425.694489,774.007812 428.132568,771.117920 427.605957,766.468689 
	C427.095154,761.959229 424.137787,760.279663 418.528290,759.949768 
	C410.000916,759.448303 402.557953,761.528992 395.990601,767.267212 
	C391.388245,771.288452 390.366333,771.029419 387.407715,765.578796 
	C382.106567,755.812500 379.488922,757.924011 390.939667,750.626343 
	C405.435791,741.387817 421.057434,739.870605 436.879974,747.515564 
	C442.822540,750.386841 446.014893,755.808655 446.871613,762.168091 
	C447.687286,768.222900 447.657104,774.391602 447.998779,781.008423 
M427.075897,801.216553 
	C427.476349,796.361938 427.876831,791.507324 428.303650,786.333069 
	C422.991943,787.738159 418.695099,788.823303 414.429718,790.020691 
	C411.413849,790.867249 408.335785,791.621765 405.471954,792.851562 
	C400.706146,794.898132 400.718719,799.265198 401.047668,803.512085 
	C401.344147,807.340271 403.390472,809.911316 407.124023,811.196350 
	C415.481171,814.072693 422.886993,810.669495 427.075897,801.216553 
z"/>
<path fill="#FFFFFF" opacity="1.000000" stroke="none" 
	d="
M469.905151,744.000427 
	C472.788116,744.202515 474.001892,743.359741 474.052002,740.653809 
	C474.124725,736.730347 473.215973,731.568054 475.300781,729.245239 
	C477.393402,726.913757 482.644379,727.423035 486.507172,726.666687 
	C486.992798,726.571594 487.442261,726.290161 487.928040,726.197998 
	C493.975922,725.050781 494.981934,725.866760 494.998657,731.895935 
	C495.032257,744.002441 495.032349,743.967041 507.376831,744.012573 
	C519.328125,744.056702 517.670471,742.657104 518.114258,754.712769 
	C518.299316,759.739380 516.974854,761.648987 511.782227,761.093628 
	C507.500275,760.635620 503.126801,761.106384 498.800507,760.963928 
	C496.047607,760.873413 494.935333,761.837524 494.959259,764.691956 
	C495.059784,776.684631 494.933380,788.679138 495.025757,800.671936 
	C495.087799,808.724365 502.047363,810.794678 509.843658,808.251038 
	C514.737671,806.654297 516.595215,807.518555 517.546692,812.096924 
	C517.647522,812.582153 517.848694,813.046631 518.005493,813.520020 
	C521.107971,822.887329 520.793213,823.726501 511.279297,826.319946 
	C502.744598,828.646362 494.090454,828.528076 486.175964,824.378357 
	C477.093536,819.616272 474.235596,810.948547 474.052856,801.346497 
	C473.831024,789.690308 473.852417,778.023865 474.081238,766.367920 
	C474.159607,762.375549 473.219940,760.716187 468.873352,760.902283 
	C462.012695,761.196106 462.001160,760.926758 461.998840,753.890320 
	C461.998566,753.057434 461.998291,752.224548 461.998840,751.391663 
	C462.003723,744.023254 462.003784,744.023254 469.905151,744.000427 
z"/>
<path fill="#FFFFFF" opacity="1.000000" stroke="none" 
	d="
M908.001465,749.218750 
	C907.830811,746.416504 908.445801,744.768677 911.241333,745.005493 
	C911.406433,745.019531 911.574097,745.000244 911.740601,745.000427 
	C916.236145,745.005188 920.918335,744.209839 925.183350,745.203918 
	C931.523621,746.681885 925.684875,753.198425 928.834351,756.380371 
	C931.451538,753.517578 933.884888,750.470154 936.711365,747.846130 
	C942.209717,742.741760 949.035645,743.553040 955.594727,744.587646 
	C956.935181,744.799133 958.186523,747.481140 958.864502,749.258789 
	C959.259705,750.294861 958.441223,751.797546 958.158081,753.087891 
	C957.452209,756.305115 957.662781,760.385010 955.726440,762.452271 
	C954.288025,763.988037 950.023499,763.260925 947.083740,762.939148 
	C934.788086,761.593445 929.485474,771.385010 929.110352,781.958191 
	C928.650146,794.929077 928.880432,807.930603 929.074341,820.914978 
	C929.131104,824.714111 928.225952,826.493958 924.090332,826.064270 
	C920.960571,825.739075 917.769897,826.001770 914.606323,825.999695 
	C908.008118,825.995300 908.001770,825.994446 908.001038,819.622375 
	C907.998352,796.311890 908.000305,773.001404 908.001465,749.218750 
z"/>
<path fill="#987EEA" opacity="1.000000" stroke="none" 
	d="
M366.968445,26.948544 
	C362.515442,31.178684 358.013153,35.358383 353.620941,39.650730 
	C346.962738,46.157524 339.263306,51.967285 334.046356,59.488304 
	C327.339813,69.156761 320.612762,79.104034 317.667572,91.019043 
	C316.145233,97.177780 312.233398,102.749771 310.742798,108.911438 
	C309.044800,115.930313 308.575073,123.291351 308.044281,130.538315 
	C306.885193,146.362366 305.917175,162.202911 305.120056,178.049240 
	C304.922241,181.981018 305.965210,185.962051 305.944855,189.917923 
	C305.679108,241.526840 304.922211,293.137756 305.239655,344.742340 
	C305.333740,360.034760 307.314575,375.532288 310.426788,390.521393 
	C312.955414,402.699890 316.989471,414.839294 324.023529,425.553436 
	C326.130402,428.762573 327.944611,432.163879 329.886902,435.863037 
	C328.294312,434.608093 326.413361,433.163849 325.166199,431.296326 
	C311.379364,410.651825 304.724792,387.754944 303.195465,363.076324 
	C299.328796,300.681702 301.828430,238.235550 301.651093,175.817139 
	C301.600403,157.973511 304.334686,140.113800 305.949982,122.275772 
	C307.833588,101.474815 314.382507,82.284996 326.335480,65.056435 
	C335.964447,51.177631 347.605103,39.216267 361.047272,29.008799 
	C362.218323,28.119535 363.662262,27.589674 365.642181,26.883261 
	C366.526093,26.898615 366.747284,26.923580 366.968445,26.948544 
z"/>
<path fill="#987EEA" opacity="1.000000" stroke="none" 
	d="
M566.304321,572.302490 
	C573.254395,576.775146 580.704346,580.511108 589.044617,582.086365 
	C591.723755,582.592285 594.598145,582.662842 597.305908,582.320801 
	C613.364136,580.292175 621.338684,568.781128 628.032166,555.812195 
	C628.854065,554.219666 629.983276,552.788757 630.867859,551.225098 
	C635.968872,542.209106 640.765564,533.006592 646.210144,524.204163 
	C650.260193,517.656189 654.333862,510.768890 659.845642,505.567932 
	C666.829407,498.977875 675.469910,494.736298 685.865967,495.643066 
	C689.034546,495.919434 692.330078,494.177399 695.588440,494.083008 
	C712.361267,493.597076 729.147949,492.913086 745.915283,493.187622 
	C754.962524,493.335785 763.812683,493.126862 772.499573,490.640808 
	C777.376648,489.245117 782.204468,487.622192 786.943298,485.810913 
	C795.157166,482.671478 803.770508,480.149536 811.314331,475.803131 
	C819.151489,471.287750 826.022156,465.043213 833.108521,459.299500 
	C836.324829,456.692474 838.945068,453.362122 842.031860,450.577393 
	C843.290894,449.441711 845.070374,448.882904 847.013733,448.111877 
	C843.476746,452.602448 839.944641,457.502106 835.528931,461.401031 
	C819.036438,475.963409 800.248596,486.429993 778.766052,491.764496 
	C759.270081,496.605743 739.359131,496.607178 719.461975,497.081635 
	C707.677307,497.362671 695.891541,498.090332 684.137024,499.010254 
	C671.581604,499.992828 662.341797,507.001678 655.847290,517.165161 
	C645.765808,532.942017 636.305969,549.120117 626.743774,565.223816 
	C616.061951,583.213074 597.223267,589.867798 577.894958,581.610718 
	C573.544128,579.752136 570.137512,575.683350 566.304321,572.302490 
z"/>
<path fill="#987EEA" opacity="1.000000" stroke="none" 
	d="
M354.273529,463.225342 
	C355.330811,463.266937 356.442993,463.559052 357.467438,464.038605 
	C360.582153,465.496704 363.670227,467.012695 366.750702,468.542267 
	C367.339142,468.834442 367.876404,469.254578 368.385529,469.677948 
	C378.517181,478.103485 390.626495,482.569611 402.840759,486.778778 
	C404.994843,487.521118 407.358246,487.737549 409.647827,487.988708 
	C414.948181,488.570068 420.221558,488.722168 425.223969,491.295441 
	C427.878571,492.660950 431.312439,492.862946 434.412781,492.951782 
	C450.689331,493.418152 467.007355,493.133911 483.240448,494.192322 
	C495.511536,494.992340 508.190399,494.984009 519.522278,500.872833 
	C522.571960,502.457703 524.912964,505.480255 527.437256,507.985901 
	C532.169556,512.683350 536.557495,517.639648 538.266846,524.359375 
	C538.428101,524.993103 538.654724,525.780884 539.124146,526.139832 
	C545.690125,531.161011 547.293945,539.275940 551.396179,545.823425 
	C556.453186,553.894775 561.086853,562.231262 565.903809,570.826172 
	C562.237183,566.175537 558.272400,561.339844 554.962158,556.091309 
	C546.836182,543.207336 539.207886,530.007874 531.008606,517.172241 
	C523.426147,505.302032 512.455322,499.033508 498.176605,498.615387 
	C481.550476,498.128540 464.911072,497.709137 448.316833,496.645721 
	C436.466919,495.886383 424.681976,494.113586 412.383606,492.378784 
	C411.174530,491.710449 410.449890,491.456299 409.725220,491.202148 
	C408.730621,491.172455 407.735992,491.142761 406.205078,490.730774 
	C403.071350,489.592712 400.473907,488.836914 397.876465,488.081116 
	C396.190430,487.619720 394.504395,487.158356 392.351776,486.277649 
	C390.556793,485.259918 389.228363,484.661591 387.899933,484.063232 
	C375.300720,479.516937 364.223267,472.475769 354.273529,463.225342 
z"/>
<path fill="#987EDA" opacity="1.000000" stroke="none" 
	d="
M883.992676,331.024750 
	C883.330750,329.555023 882.179688,328.111816 882.098267,326.610626 
	C881.850464,322.042877 882.019714,317.452759 882.019165,312.871338 
	C882.014038,266.080475 882.004761,219.289581 882.019226,172.498703 
	C882.019531,171.523315 882.289368,170.548019 882.999634,169.585114 
	C884.052002,174.404419 884.538025,179.211304 885.024170,184.018173 
	C885.055481,232.358994 885.086792,280.699799 884.862183,329.622162 
	C884.401733,330.477386 884.197205,330.751068 883.992676,331.024750 
z"/>
<path fill="#B59BEB" opacity="1.000000" stroke="none" 
	d="
M879.718750,113.728271 
	C877.532715,107.958588 875.080444,101.865051 873.487793,95.554550 
	C870.544678,83.892845 864.970276,73.548714 857.647888,64.294922 
	C850.000610,54.630516 841.463989,45.669842 833.249756,36.057365 
	C836.382812,37.995953 840.027771,39.850327 842.705566,42.634800 
	C855.064575,55.485828 866.102844,69.425621 872.439941,86.278084 
	C875.713806,94.984108 877.423828,104.278160 879.718750,113.728271 
z"/>
<path fill="#987EEA" opacity="1.000000" stroke="none" 
	d="
M849.475342,446.257507 
	C849.298401,442.179108 851.234436,439.054352 854.222412,436.128967 
	C857.211365,433.202545 859.495728,429.565399 862.193726,426.327057 
	C862.977295,425.386566 864.120361,424.745575 865.443542,423.941223 
	C860.463623,431.330078 855.138733,438.744995 849.475342,446.257507 
z"/>
<path fill="#987EDA" opacity="1.000000" stroke="none" 
	d="
M882.927612,154.035950 
	C882.308594,153.372620 881.203308,152.749802 881.144165,152.039825 
	C880.360901,142.635574 879.724548,133.219101 879.374878,123.379280 
	C880.278137,123.023384 880.858093,123.093887 881.438049,123.164391 
	C881.403564,125.079300 881.369141,126.994209 881.230164,129.722656 
	C881.787842,134.034821 882.450073,137.533447 883.112305,141.032089 
	C883.341125,144.101196 883.570007,147.170303 883.550293,150.881561 
	C883.177063,152.361130 883.052307,153.198532 882.927612,154.035950 
z"/>
<path fill="#B59BEB" opacity="1.000000" stroke="none" 
	d="
M882.942444,154.498291 
	C883.052307,153.198532 883.177063,152.361130 883.510315,151.289551 
	C884.020752,151.434113 884.574768,151.804413 884.587708,152.192749 
	C884.934387,162.582718 885.225525,172.974518 885.275085,183.692093 
	C884.538025,179.211304 884.052002,174.404419 883.292969,169.284821 
	C882.999146,164.301620 882.978210,159.631119 882.942444,154.498291 
z"/>
<path fill="#B59BEB" opacity="1.000000" stroke="none" 
	d="
M883.991699,331.476196 
	C884.197205,330.751068 884.401733,330.477386 884.838501,330.088745 
	C884.705994,339.613281 884.341248,349.252808 883.542175,358.676056 
	C883.059021,357.297699 883.010132,356.135590 882.961182,354.973511 
	C883.304382,347.291534 883.647583,339.609589 883.991699,331.476196 
z"/>
<path fill="#987EEA" opacity="1.000000" stroke="none" 
	d="
M866.202637,423.647705 
	C867.866089,418.024048 869.769348,412.233154 871.805115,406.489197 
	C872.632446,404.154663 873.747986,401.922272 875.123657,399.320251 
	C875.514771,398.997070 875.995117,399.008026 875.994507,399.370972 
	C876.041687,400.215851 876.089478,400.697784 876.137268,401.179749 
	C872.923401,408.619629 869.709534,416.059479 866.202637,423.647705 
z"/>
<path fill="#987EEA" opacity="1.000000" stroke="none" 
	d="
M333.310303,441.313354 
	C336.383942,441.585846 338.502411,442.996185 339.954529,446.086517 
	C341.377228,449.114197 343.894135,451.627747 345.957031,454.725769 
	C341.751892,450.605957 337.520508,446.127319 333.310303,441.313354 
z"/>
<path fill="#B59BEB" opacity="1.000000" stroke="none" 
	d="
M876.459045,401.040222 
	C876.089478,400.697784 876.041687,400.215851 876.194214,399.243164 
	C876.644104,398.518921 876.751465,398.232086 876.716553,397.891968 
	C877.132996,396.193146 877.549500,394.494324 878.195984,392.291199 
	C878.689758,391.565765 878.837830,391.283905 878.870239,390.941284 
	C879.489380,387.944550 880.108582,384.947784 881.073242,381.855408 
	C879.872742,388.140045 878.326782,394.520355 876.459045,401.040222 
z"/>
<path fill="#987EDA" opacity="1.000000" stroke="none" 
	d="
M882.576782,355.082520 
	C883.010132,356.135590 883.059021,357.297699 883.218140,358.888245 
	C883.408142,362.223602 883.487976,365.130554 883.232056,368.478058 
	C882.581543,368.975037 882.264648,369.014954 881.945557,369.038422 
	C882.027832,364.422791 882.110107,359.807159 882.576782,355.082520 
z"/>
<path fill="#B59BEB" opacity="1.000000" stroke="none" 
	d="
M883.340088,140.727692 
	C882.450073,137.533447 881.787842,134.034821 881.224976,130.081589 
	C882.072144,133.225754 882.820007,136.824524 883.340088,140.727692 
z"/>
<path fill="#B59BEB" opacity="1.000000" stroke="none" 
	d="
M881.903687,369.414612 
	C882.264648,369.014954 882.581543,368.975037 883.124146,368.871613 
	C883.015198,371.417206 882.678345,374.009857 881.978027,376.763245 
	C881.696960,374.546295 881.779358,372.168549 881.903687,369.414612 
z"/>
<path fill="#987EEA" opacity="1.000000" stroke="none" 
	d="
M346.920349,456.358978 
	C349.217712,458.051270 351.584076,460.079956 354.025757,462.426575 
	C351.730499,460.728149 349.359894,458.711761 346.920349,456.358978 
z"/>
<path fill="#B59BEB" opacity="1.000000" stroke="none" 
	d="
M881.581299,122.783836 
	C880.858093,123.093887 880.278137,123.023384 879.406128,122.918991 
	C879.172729,120.808739 879.231506,118.732384 879.512024,116.353584 
	C880.397339,118.168526 881.060913,120.285904 881.581299,122.783836 
z"/>
<path fill="#B59BEB" opacity="1.000000" stroke="none" 
	d="
M397.997284,488.401367 
	C400.473907,488.836914 403.071350,489.592712 405.836243,490.672729 
	C403.375153,490.238464 400.746613,489.480042 397.997284,488.401367 
z"/>
<path fill="#B59BEB" opacity="1.000000" stroke="none" 
	d="
M830.069214,32.542805 
	C827.801575,31.488777 825.448059,30.105169 823.034302,28.387577 
	C825.310425,29.440136 827.646912,30.826681 830.069214,32.542805 
z"/>
<path fill="#B59BEB" opacity="1.000000" stroke="none" 
	d="
M387.990723,484.384430 
	C389.228363,484.661591 390.556793,485.259918 392.005707,486.130768 
	C390.777985,485.837372 389.429749,485.271515 387.990723,484.384430 
z"/>
<path fill="#B59BEB" opacity="1.000000" stroke="none" 
	d="
M409.865173,491.482727 
	C410.449890,491.456299 411.174530,491.710449 412.007629,492.246399 
	C411.412384,492.273254 410.708740,492.018280 409.865173,491.482727 
z"/>
<path fill="#B59BEB" opacity="1.000000" stroke="none" 
	d="
M832.803467,34.778481 
	C832.202637,34.676315 831.612183,34.251987 830.952637,33.549198 
	C831.527039,33.665928 832.170471,34.061123 832.803467,34.778481 
z"/>
<path fill="#B59BEB" opacity="1.000000" stroke="none" 
	d="
M367.212189,26.800598 
	C366.747284,26.923580 366.526093,26.898615 365.978943,26.792971 
	C366.242065,26.172812 366.831116,25.633327 367.736938,25.100304 
	C367.854462,25.622061 367.655212,26.137358 367.212189,26.800598 
z"/>
<path fill="#FBFAFD" opacity="1.000000" stroke="none" 
	d="
M622.768555,262.191467 
	C623.982605,282.090668 603.898621,298.931122 583.245667,291.170563 
	C566.389160,284.836487 557.392273,262.391174 569.608337,246.871170 
	C580.099854,233.542099 595.089172,230.284424 609.160156,238.693756 
	C617.370117,243.600342 622.173279,251.726959 622.768555,262.191467 
z"/>
<path fill="#FCFAFD" opacity="1.000000" stroke="none" 
	d="
M714.550659,292.807068 
	C699.740234,294.264404 689.691040,287.669800 683.473022,275.317993 
	C676.982361,262.424652 681.678528,247.863678 694.817505,238.880157 
	C704.827576,232.035904 715.588013,232.707047 725.487488,238.486847 
	C733.819214,243.351288 738.638733,251.385391 739.691833,261.308350 
	C741.098938,274.568359 731.030823,289.782532 714.550659,292.807068 
z"/>
<path fill="#FCFAFD" opacity="1.000000" stroke="none" 
	d="
M464.573181,290.622375 
	C449.940674,281.501465 444.245819,268.003326 448.950592,254.178253 
	C453.508392,240.785049 467.709839,232.274231 481.583191,234.621811 
	C495.627411,236.998291 505.406403,248.916397 506.055939,263.132385 
	C506.915161,281.937836 487.138550,297.510742 468.740784,291.821808 
	C467.477966,291.431274 466.181946,291.148163 464.573181,290.622375 
z"/>
<path fill="#987EDA" opacity="1.000000" stroke="none" 
	d="
M876.462341,397.954773 
	C876.751465,398.232086 876.644104,398.518921 876.194824,398.880249 
	C875.995117,399.008026 875.514771,398.997070 875.275024,398.992920 
	C875.426208,398.665070 875.817200,398.341309 876.462341,397.954773 
z"/>
<path fill="#987EDA" opacity="1.000000" stroke="none" 
	d="
M878.677734,391.081329 
	C878.837830,391.283905 878.689758,391.565765 878.215454,391.910767 
	C878.086548,391.717255 878.246704,391.446167 878.677734,391.081329 
z"/>
<path fill="#F6F6F6" opacity="1.000000" stroke="none" 
	d="
M683.979736,791.562866 
	C682.479614,796.002930 681.657104,800.433411 679.361694,803.884338 
	C675.306458,809.981201 668.680664,810.916443 661.990662,809.741028 
	C654.539001,808.431885 650.090332,803.388611 648.320435,796.265442 
	C646.377808,788.446960 646.171143,780.564819 648.903137,772.769836 
	C651.678589,764.850830 657.805420,760.108582 665.536194,760.147827 
	C674.190613,760.191772 680.825623,765.051880 682.646912,773.840698 
	C683.809265,779.449951 683.592407,785.345093 683.979736,791.562866 
z"/>
<path fill="#F6F6F6" opacity="1.000000" stroke="none" 
	d="
M989.599304,767.817749 
	C993.891846,760.412781 1000.306213,758.331482 1008.034546,759.025757 
	C1017.014648,759.832520 1022.093872,769.387268 1020.401672,776.592529 
	C1009.481384,776.592529 998.480408,776.592529 986.707825,776.592529 
	C987.736816,773.392395 988.579712,770.771057 989.599304,767.817749 
z"/>
<path fill="#F6F6F6" opacity="1.000000" stroke="none" 
	d="
M846.228271,760.902893 
	C850.145874,760.162964 853.729614,759.025085 857.279114,759.123047 
	C865.219055,759.342163 871.418945,766.664978 870.822815,774.653931 
	C870.762390,775.464050 869.554565,776.843994 868.864197,776.853333 
	C858.417725,776.995056 847.968811,776.951660 837.218079,776.951660 
	C837.276794,769.567993 840.591064,764.776855 846.228271,760.902893 
z"/>
<path fill="#F6F6F6" opacity="1.000000" stroke="none" 
	d="
M426.978638,801.610596 
	C422.886993,810.669495 415.481171,814.072693 407.124023,811.196350 
	C403.390472,809.911316 401.344147,807.340271 401.047668,803.512085 
	C400.718719,799.265198 400.706146,794.898132 405.471954,792.851562 
	C408.335785,791.621765 411.413849,790.867249 414.429718,790.020691 
	C418.695099,788.823303 422.991943,787.738159 428.303650,786.333069 
	C427.876831,791.507324 427.476349,796.361938 426.978638,801.610596 
z"/>
</svg>